STARTFONT 2.1
COMMENT Recovered from ar1.1:TR12I 1 (Xerox Alto CONVERT font source (AL) recovered from MIT CADR AR1 ARC!!!)
FONT MIT-CADR-TR12I-AL-AR1
SIZE 14 72 72
FONTBOUNDINGBOX 14 14 0 -4
STARTPROPERTIES 2
FONT_ASCENT 10
FONT_DESCENT 4
ENDPROPERTIES
CHARS 128
STARTCHAR C0000
ENCODING -1 0
SWIDTH 0 0
DWIDTH 0 0
BBX 0 14 0 -4
BITMAP
00
00
00
00
00
00
00
00
00
00
00
00
00
00
ENDCHAR
STARTCHAR C0001
ENCODING -1 1
SWIDTH 0 0
DWIDTH 0 0
BBX 0 14 0 -4
BITMAP
00
00
00
00
00
00
00
00
00
00
00
00
00
00
ENDCHAR
STARTCHAR C0002
ENCODING -1 2
SWIDTH 0 0
DWIDTH 0 0
BBX 0 14 0 -4
BITMAP
00
00
00
00
00
00
00
00
00
00
00
00
00
00
ENDCHAR
STARTCHAR C0003
ENCODING -1 3
SWIDTH 0 0
DWIDTH 0 0
BBX 0 14 0 -4
BITMAP
00
00
00
00
00
00
00
00
00
00
00
00
00
00
ENDCHAR
STARTCHAR C0004
ENCODING -1 4
SWIDTH 0 0
DWIDTH 0 0
BBX 0 14 0 -4
BITMAP
00
00
00
00
00
00
00
00
00
00
00
00
00
00
ENDCHAR
STARTCHAR C0005
ENCODING -1 5
SWIDTH 0 0
DWIDTH 0 0
BBX 0 14 0 -4
BITMAP
00
00
00
00
00
00
00
00
00
00
00
00
00
00
ENDCHAR
STARTCHAR C0006
ENCODING -1 6
SWIDTH 0 0
DWIDTH 0 0
BBX 0 14 0 -4
BITMAP
00
00
00
00
00
00
00
00
00
00
00
00
00
00
ENDCHAR
STARTCHAR C0007
ENCODING -1 7
SWIDTH 0 0
DWIDTH 0 0
BBX 0 14 0 -4
BITMAP
00
00
00
00
00
00
00
00
00
00
00
00
00
00
ENDCHAR
STARTCHAR C0008
ENCODING -1 8
SWIDTH 0 0
DWIDTH 0 0
BBX 0 14 0 -4
BITMAP
00
00
00
00
00
00
00
00
00
00
00
00
00
00
ENDCHAR
STARTCHAR C0009
ENCODING -1 9
SWIDTH 0 0
DWIDTH 0 0
BBX 0 14 0 -4
BITMAP
00
00
00
00
00
00
00
00
00
00
00
00
00
00
ENDCHAR
STARTCHAR C000A
ENCODING -1 10
SWIDTH 0 0
DWIDTH 0 0
BBX 0 14 0 -4
BITMAP
00
00
00
00
00
00
00
00
00
00
00
00
00
00
ENDCHAR
STARTCHAR C000B
ENCODING -1 11
SWIDTH 0 0
DWIDTH 0 0
BBX 0 14 0 -4
BITMAP
00
00
00
00
00
00
00
00
00
00
00
00
00
00
ENDCHAR
STARTCHAR C000C
ENCODING -1 12
SWIDTH 0 0
DWIDTH 0 0
BBX 0 14 0 -4
BITMAP
00
00
00
00
00
00
00
00
00
00
00
00
00
00
ENDCHAR
STARTCHAR C000D
ENCODING -1 13
SWIDTH 0 0
DWIDTH 0 0
BBX 0 14 0 -4
BITMAP
00
00
00
00
00
00
00
00
00
00
00
00
00
00
ENDCHAR
STARTCHAR C000E
ENCODING -1 14
SWIDTH 0 0
DWIDTH 0 0
BBX 0 14 0 -4
BITMAP
00
00
00
00
00
00
00
00
00
00
00
00
00
00
ENDCHAR
STARTCHAR C000F
ENCODING -1 15
SWIDTH 0 0
DWIDTH 0 0
BBX 0 14 0 -4
BITMAP
00
00
00
00
00
00
00
00
00
00
00
00
00
00
ENDCHAR
STARTCHAR C0010
ENCODING -1 16
SWIDTH 0 0
DWIDTH 0 0
BBX 0 14 0 -4
BITMAP
00
00
00
00
00
00
00
00
00
00
00
00
00
00
ENDCHAR
STARTCHAR C0011
ENCODING -1 17
SWIDTH 0 0
DWIDTH 0 0
BBX 0 14 0 -4
BITMAP
00
00
00
00
00
00
00
00
00
00
00
00
00
00
ENDCHAR
STARTCHAR C0012
ENCODING -1 18
SWIDTH 0 0
DWIDTH 0 0
BBX 0 14 0 -4
BITMAP
00
00
00
00
00
00
00
00
00
00
00
00
00
00
ENDCHAR
STARTCHAR C0013
ENCODING -1 19
SWIDTH 0 0
DWIDTH 0 0
BBX 0 14 0 -4
BITMAP
00
00
00
00
00
00
00
00
00
00
00
00
00
00
ENDCHAR
STARTCHAR C0014
ENCODING -1 20
SWIDTH 0 0
DWIDTH 0 0
BBX 0 14 0 -4
BITMAP
00
00
00
00
00
00
00
00
00
00
00
00
00
00
ENDCHAR
STARTCHAR C0015
ENCODING -1 21
SWIDTH 0 0
DWIDTH 0 0
BBX 0 14 0 -4
BITMAP
00
00
00
00
00
00
00
00
00
00
00
00
00
00
ENDCHAR
STARTCHAR C0016
ENCODING -1 22
SWIDTH 0 0
DWIDTH 0 0
BBX 0 14 0 -4
BITMAP
00
00
00
00
00
00
00
00
00
00
00
00
00
00
ENDCHAR
STARTCHAR C0017
ENCODING -1 23
SWIDTH 0 0
DWIDTH 0 0
BBX 0 14 0 -4
BITMAP
00
00
00
00
00
00
00
00
00
00
00
00
00
00
ENDCHAR
STARTCHAR C0018
ENCODING -1 24
SWIDTH 0 0
DWIDTH 0 0
BBX 14 14 0 -4
BITMAP
0000
0000
0000
0000
0000
0000
0000
0000
0000
0000
0000
0000
0000
7FFC
ENDCHAR
STARTCHAR C0019
ENCODING -1 25
SWIDTH 0 0
DWIDTH 0 0
BBX 0 14 0 -4
BITMAP
00
00
00
00
00
00
00
00
00
00
00
00
00
00
ENDCHAR
STARTCHAR C001A
ENCODING -1 26
SWIDTH 0 0
DWIDTH 0 0
BBX 0 14 0 -4
BITMAP
00
00
00
00
00
00
00
00
00
00
00
00
00
00
ENDCHAR
STARTCHAR C001B
ENCODING -1 27
SWIDTH 0 0
DWIDTH 0 0
BBX 0 14 0 -4
BITMAP
00
00
00
00
00
00
00
00
00
00
00
00
00
00
ENDCHAR
STARTCHAR C001C
ENCODING -1 28
SWIDTH 0 0
DWIDTH 0 0
BBX 0 14 0 -4
BITMAP
00
00
00
00
00
00
00
00
00
00
00
00
00
00
ENDCHAR
STARTCHAR C001D
ENCODING -1 29
SWIDTH 0 0
DWIDTH 0 0
BBX 0 14 0 -4
BITMAP
00
00
00
00
00
00
00
00
00
00
00
00
00
00
ENDCHAR
STARTCHAR C001E
ENCODING -1 30
SWIDTH 0 0
DWIDTH 0 0
BBX 0 14 0 -4
BITMAP
00
00
00
00
00
00
00
00
00
00
00
00
00
00
ENDCHAR
STARTCHAR C001F
ENCODING -1 31
SWIDTH 0 0
DWIDTH 0 0
BBX 0 14 0 -4
BITMAP
00
00
00
00
00
00
00
00
00
00
00
00
00
00
ENDCHAR
STARTCHAR C0020
ENCODING -1 32
SWIDTH 429 0
DWIDTH 6 0
BBX 6 14 0 -4
BITMAP
00
00
00
00
00
00
00
00
00
00
00
00
00
00
ENDCHAR
STARTCHAR C0021
ENCODING -1 33
SWIDTH 357 0
DWIDTH 5 0
BBX 5 14 0 -4
BITMAP
00
08
08
08
10
10
10
10
00
20
20
00
00
00
ENDCHAR
STARTCHAR C0022
ENCODING -1 34
SWIDTH 500 0
DWIDTH 7 0
BBX 7 14 0 -4
BITMAP
00
12
12
24
24
00
00
00
00
00
00
00
00
00
ENDCHAR
STARTCHAR C0023
ENCODING -1 35
SWIDTH 786 0
DWIDTH 11 0
BBX 11 14 0 -4
BITMAP
0000
0120
0120
0240
0FE0
0480
0900
0900
3F80
1200
2400
0000
0000
0000
ENDCHAR
STARTCHAR C0024
ENCODING -1 36
SWIDTH 643 0
DWIDTH 9 0
BBX 9 14 0 -4
BITMAP
0200
0F00
1280
1200
1400
0C00
0600
0A00
0A00
5200
3C00
1000
0000
0000
ENDCHAR
STARTCHAR C0025
ENCODING -1 37
SWIDTH 857 0
DWIDTH 12 0
BBX 13 14 0 -4
BITMAP
0E30
11D0
2220
2240
2480
1930
0248
0488
0888
1090
2060
0000
0000
0000
ENDCHAR
STARTCHAR C0026
ENCODING -1 38
SWIDTH 714 0
DWIDTH 10 0
BBX 10 14 0 -4
BITMAP
0000
0600
0900
0900
0A00
1400
25C0
4480
4500
4640
3980
0000
0000
0000
ENDCHAR
STARTCHAR C0027
ENCODING -1 39
SWIDTH 286 0
DWIDTH 4 0
BBX 4 14 0 -4
BITMAP
00
10
10
20
20
00
00
00
00
00
00
00
00
00
ENDCHAR
STARTCHAR C0028
ENCODING -1 40
SWIDTH 643 0
DWIDTH 9 0
BBX 9 14 0 -4
BITMAP
0100
0200
0400
0800
1000
1000
2000
2000
2000
2000
2000
1000
1000
0800
ENDCHAR
STARTCHAR C0029
ENCODING -1 41
SWIDTH 571 0
DWIDTH 8 0
BBX 8 14 0 -4
BITMAP
04
02
02
01
01
01
01
01
02
02
04
08
10
20
ENDCHAR
STARTCHAR C002A
ENCODING -1 42
SWIDTH 500 0
DWIDTH 7 0
BBX 7 14 0 -4
BITMAP
08
2A
1C
1C
2A
08
00
00
00
00
00
00
00
00
ENDCHAR
STARTCHAR C002B
ENCODING -1 43
SWIDTH 643 0
DWIDTH 9 0
BBX 9 14 0 -4
BITMAP
0000
0000
0000
0000
0200
0200
0400
3F80
0400
0800
0800
0000
0000
0000
ENDCHAR
STARTCHAR C002C
ENCODING -1 44
SWIDTH 286 0
DWIDTH 4 0
BBX 4 14 0 -4
BITMAP
00
00
00
00
00
00
00
00
00
30
10
10
20
00
ENDCHAR
STARTCHAR C002D
ENCODING -1 45
SWIDTH 500 0
DWIDTH 7 0
BBX 7 14 0 -4
BITMAP
00
00
00
00
00
00
3E
00
00
00
00
00
00
00
ENDCHAR
STARTCHAR C002E
ENCODING -1 46
SWIDTH 214 0
DWIDTH 3 0
BBX 3 14 0 -4
BITMAP
00
00
00
00
00
00
00
00
00
20
20
00
00
00
ENDCHAR
STARTCHAR C002F
ENCODING -1 47
SWIDTH 571 0
DWIDTH 8 0
BBX 8 14 0 -4
BITMAP
00
01
01
02
04
04
08
08
10
20
20
00
00
00
ENDCHAR
STARTCHAR C0030
ENCODING -1 48
SWIDTH 571 0
DWIDTH 8 0
BBX 8 14 0 -4
BITMAP
00
06
09
11
11
21
21
22
22
24
18
00
00
00
ENDCHAR
STARTCHAR C0031
ENCODING -1 49
SWIDTH 571 0
DWIDTH 8 0
BBX 8 14 0 -4
BITMAP
00
06
0A
02
04
04
04
04
08
08
1C
00
00
00
ENDCHAR
STARTCHAR C0032
ENCODING -1 50
SWIDTH 571 0
DWIDTH 8 0
BBX 8 14 0 -4
BITMAP
00
06
09
11
01
02
04
08
10
21
3E
00
00
00
ENDCHAR
STARTCHAR C0033
ENCODING -1 51
SWIDTH 571 0
DWIDTH 8 0
BBX 8 14 0 -4
BITMAP
00
06
09
01
01
0E
02
02
02
64
38
00
00
00
ENDCHAR
STARTCHAR C0034
ENCODING -1 52
SWIDTH 571 0
DWIDTH 8 0
BBX 8 14 0 -4
BITMAP
00
01
03
05
09
12
22
42
7F
04
04
00
00
00
ENDCHAR
STARTCHAR C0035
ENCODING -1 53
SWIDTH 571 0
DWIDTH 8 0
BBX 8 14 0 -4
BITMAP
00
07
08
08
18
04
02
02
02
64
38
00
00
00
ENDCHAR
STARTCHAR C0036
ENCODING -1 54
SWIDTH 571 0
DWIDTH 8 0
BBX 8 14 0 -4
BITMAP
00
03
0C
10
2C
22
42
42
42
44
38
00
00
00
ENDCHAR
STARTCHAR C0037
ENCODING -1 55
SWIDTH 571 0
DWIDTH 8 0
BBX 8 14 0 -4
BITMAP
00
1F
21
02
02
04
04
08
08
10
10
00
00
00
ENDCHAR
STARTCHAR C0038
ENCODING -1 56
SWIDTH 571 0
DWIDTH 8 0
BBX 8 14 0 -4
BITMAP
00
0E
11
11
12
0C
12
22
22
22
1C
00
00
00
ENDCHAR
STARTCHAR C0039
ENCODING -1 57
SWIDTH 571 0
DWIDTH 8 0
BBX 8 14 0 -4
BITMAP
00
0E
11
21
21
21
22
1A
04
18
60
00
00
00
ENDCHAR
STARTCHAR C003A
ENCODING -1 58
SWIDTH 286 0
DWIDTH 4 0
BBX 4 14 0 -4
BITMAP
00
00
00
00
10
10
00
00
00
20
20
00
00
00
ENDCHAR
STARTCHAR C003B
ENCODING -1 59
SWIDTH 357 0
DWIDTH 5 0
BBX 5 14 0 -4
BITMAP
00
00
00
00
08
08
00
00
00
30
10
10
20
00
ENDCHAR
STARTCHAR C003C
ENCODING -1 60
SWIDTH 571 0
DWIDTH 8 0
BBX 8 14 0 -4
BITMAP
00
01
02
04
08
10
20
20
10
10
08
00
00
00
ENDCHAR
STARTCHAR C003D
ENCODING -1 61
SWIDTH 571 0
DWIDTH 8 0
BBX 8 14 0 -4
BITMAP
00
00
00
00
00
00
1F
00
3E
00
00
00
00
00
ENDCHAR
STARTCHAR C003E
ENCODING -1 62
SWIDTH 571 0
DWIDTH 8 0
BBX 8 14 0 -4
BITMAP
00
04
02
02
01
01
02
04
08
10
20
00
00
00
ENDCHAR
STARTCHAR C003F
ENCODING -1 63
SWIDTH 500 0
DWIDTH 7 0
BBX 7 14 0 -4
BITMAP
00
1C
22
12
04
08
10
20
00
20
20
00
00
00
ENDCHAR
STARTCHAR C0040
ENCODING -1 64
SWIDTH 929 0
DWIDTH 13 0
BBX 13 14 0 -4
BITMAP
07C0
1830
2010
2348
44C8
4848
4890
4930
26C0
2000
1820
07C0
0000
0000
ENDCHAR
STARTCHAR C0041
ENCODING -1 65
SWIDTH 643 0
DWIDTH 9 0
BBX 9 14 0 -4
BITMAP
0000
0300
0300
0500
0500
0D00
0900
1F00
1100
2100
7380
0000
0000
0000
ENDCHAR
STARTCHAR C0042
ENCODING -1 66
SWIDTH 643 0
DWIDTH 9 0
BBX 9 14 0 -4
BITMAP
0000
1F00
0880
0880
1100
1E00
1100
1100
2100
2100
7E00
0000
0000
0000
ENDCHAR
STARTCHAR C0043
ENCODING -1 67
SWIDTH 714 0
DWIDTH 10 0
BBX 10 14 0 -4
BITMAP
0000
0740
18C0
2040
2000
4000
4000
4000
4080
2100
1E00
0000
0000
0000
ENDCHAR
STARTCHAR C0044
ENCODING -1 68
SWIDTH 714 0
DWIDTH 10 0
BBX 10 14 0 -4
BITMAP
0000
1F00
0880
0840
1040
1040
1040
2080
2080
2100
7E00
0000
0000
0000
ENDCHAR
STARTCHAR C0045
ENCODING -1 69
SWIDTH 714 0
DWIDTH 10 0
BBX 10 14 0 -4
BITMAP
0000
1FC0
0840
0800
1100
1E00
1200
2000
2080
2080
7F00
0000
0000
0000
ENDCHAR
STARTCHAR C0046
ENCODING -1 70
SWIDTH 643 0
DWIDTH 9 0
BBX 10 14 0 -4
BITMAP
0000
1FC0
0840
0800
1100
1E00
1200
2000
2000
2000
7000
0000
0000
0000
ENDCHAR
STARTCHAR C0047
ENCODING -1 71
SWIDTH 714 0
DWIDTH 10 0
BBX 10 14 0 -4
BITMAP
0000
0740
18C0
2040
2000
4000
41C0
4080
4100
2100
1E00
0000
0000
0000
ENDCHAR
STARTCHAR C0048
ENCODING -1 72
SWIDTH 786 0
DWIDTH 11 0
BBX 11 14 0 -4
BITMAP
0000
1CE0
0840
0840
1080
1F80
1080
1080
2100
2100
7380
0000
0000
0000
ENDCHAR
STARTCHAR C0049
ENCODING -1 73
SWIDTH 429 0
DWIDTH 6 0
BBX 6 14 0 -4
BITMAP
00
1C
08
08
10
10
10
10
20
20
70
00
00
00
ENDCHAR
STARTCHAR C004A
ENCODING -1 74
SWIDTH 571 0
DWIDTH 8 0
BBX 8 14 0 -4
BITMAP
00
07
02
02
04
04
04
04
48
68
30
00
00
00
ENDCHAR
STARTCHAR C004B
ENCODING -1 75
SWIDTH 714 0
DWIDTH 10 0
BBX 10 14 0 -4
BITMAP
0000
1DC0
0880
0900
1200
1C00
1400
1200
2200
2100
7380
0000
0000
0000
ENDCHAR
STARTCHAR C004C
ENCODING -1 76
SWIDTH 643 0
DWIDTH 9 0
BBX 9 14 0 -4
BITMAP
0000
1C00
0800
0800
1000
1000
1000
1080
2080
2100
7F00
0000
0000
0000
ENDCHAR
STARTCHAR C004D
ENCODING -1 77
SWIDTH 1000 0
DWIDTH 14 0
BBX 14 14 0 -4
BITMAP
0000
0E1C
0628
0628
0A50
0A50
0A90
0A90
1320
1320
3A70
0000
0000
0000
ENDCHAR
STARTCHAR C004E
ENCODING -1 78
SWIDTH 786 0
DWIDTH 11 0
BBX 11 14 0 -4
BITMAP
0000
18E0
0840
0C40
1480
1480
1280
1280
2300
2100
7100
0000
0000
0000
ENDCHAR
STARTCHAR C004F
ENCODING -1 79
SWIDTH 714 0
DWIDTH 10 0
BBX 10 14 0 -4
BITMAP
0000
0700
1880
2040
2040
4040
4040
4080
4080
2300
1C00
0000
0000
0000
ENDCHAR
STARTCHAR C0050
ENCODING -1 80
SWIDTH 643 0
DWIDTH 9 0
BBX 9 14 0 -4
BITMAP
0000
1F00
0880
0880
1080
1100
1E00
1000
2000
2000
7000
0000
0000
0000
ENDCHAR
STARTCHAR C0051
ENCODING -1 81
SWIDTH 714 0
DWIDTH 10 0
BBX 10 14 0 -4
BITMAP
0000
0700
1880
2040
2040
4040
4040
4080
4080
2300
1C00
1000
3C80
0700
ENDCHAR
STARTCHAR C0052
ENCODING -1 82
SWIDTH 643 0
DWIDTH 9 0
BBX 9 14 0 -4
BITMAP
0000
1F00
0880
0880
1080
1F00
1400
1200
2200
2100
7180
0000
0000
0000
ENDCHAR
STARTCHAR C0053
ENCODING -1 83
SWIDTH 643 0
DWIDTH 9 0
BBX 9 14 0 -4
BITMAP
0000
0E80
1100
1100
1000
0E00
0100
0100
2100
2200
5C00
0000
0000
0000
ENDCHAR
STARTCHAR C0054
ENCODING -1 84
SWIDTH 714 0
DWIDTH 10 0
BBX 10 14 0 -4
BITMAP
0000
3FC0
4440
4480
0800
0800
0800
0800
1000
1000
3800
0000
0000
0000
ENDCHAR
STARTCHAR C0055
ENCODING -1 85
SWIDTH 714 0
DWIDTH 10 0
BBX 10 14 0 -4
BITMAP
0000
39C0
1080
1080
2100
2100
2100
4100
4200
4200
3C00
0000
0000
0000
ENDCHAR
STARTCHAR C0056
ENCODING -1 86
SWIDTH 714 0
DWIDTH 10 0
BBX 10 14 0 -4
BITMAP
0000
39C0
1080
1100
1100
1200
1200
1400
1400
1800
1800
0000
0000
0000
ENDCHAR
STARTCHAR C0057
ENCODING -1 87
SWIDTH 1000 0
DWIDTH 14 0
BBX 14 14 0 -4
BITMAP
0000
739C
2108
2310
2310
2520
2520
2940
2940
3180
3180
0000
0000
0000
ENDCHAR
STARTCHAR C0058
ENCODING -1 88
SWIDTH 714 0
DWIDTH 10 0
BBX 10 14 0 -4
BITMAP
0000
39C0
1080
0900
0A00
0600
0C00
0A00
1200
2100
7380
0000
0000
0000
ENDCHAR
STARTCHAR C0059
ENCODING -1 89
SWIDTH 643 0
DWIDTH 9 0
BBX 10 14 0 -4
BITMAP
0000
71C0
2080
1100
1200
1400
0800
0800
1000
1000
3800
0000
0000
0000
ENDCHAR
STARTCHAR C005A
ENCODING -1 90
SWIDTH 643 0
DWIDTH 9 0
BBX 9 14 0 -4
BITMAP
0000
1F80
1080
2100
0200
0400
0800
1000
2080
4100
7F00
0000
0000
0000
ENDCHAR
STARTCHAR C005B
ENCODING -1 91
SWIDTH 714 0
DWIDTH 10 0
BBX 10 14 0 -4
BITMAP
03C0
0200
0200
0400
0400
0400
0800
0800
1000
1000
1000
2000
2000
3C00
ENDCHAR
STARTCHAR C005C
ENCODING -1 92
SWIDTH 357 0
DWIDTH 5 0
BBX 5 14 0 -4
BITMAP
00
20
20
20
10
10
10
10
08
08
08
00
00
00
ENDCHAR
STARTCHAR C005D
ENCODING -1 93
SWIDTH 714 0
DWIDTH 10 0
BBX 10 14 0 -4
BITMAP
03C0
0040
0040
0080
0080
0080
0100
0100
0200
0200
0200
0400
0400
3C00
ENDCHAR
STARTCHAR C005E
ENCODING -1 94
SWIDTH 571 0
DWIDTH 8 0
BBX 8 14 0 -4
BITMAP
00
00
00
04
0E
15
04
08
08
08
00
00
00
00
ENDCHAR
STARTCHAR C005F
ENCODING -1 95
SWIDTH 643 0
DWIDTH 9 0
BBX 9 14 0 -4
BITMAP
0000
0000
0000
0000
0400
0800
3F80
1000
0800
0000
0000
0000
0000
0000
ENDCHAR
STARTCHAR C0060
ENCODING -1 96
SWIDTH 0 0
DWIDTH 0 0
BBX 0 14 0 -4
BITMAP
00
00
00
00
00
00
00
00
00
00
00
00
00
00
ENDCHAR
STARTCHAR C0061
ENCODING -1 97
SWIDTH 571 0
DWIDTH 8 0
BBX 8 14 0 -4
BITMAP
00
00
00
00
0D
12
22
22
44
49
36
00
00
00
ENDCHAR
STARTCHAR C0062
ENCODING -1 98
SWIDTH 500 0
DWIDTH 7 0
BBX 7 14 0 -4
BITMAP
00
30
10
10
2C
22
22
42
42
44
38
00
00
00
ENDCHAR
STARTCHAR C0063
ENCODING -1 99
SWIDTH 500 0
DWIDTH 7 0
BBX 7 14 0 -4
BITMAP
00
00
00
00
1C
22
44
40
40
44
38
00
00
00
ENDCHAR
STARTCHAR C0064
ENCODING -1 100
SWIDTH 571 0
DWIDTH 8 0
BBX 8 14 0 -4
BITMAP
00
03
01
01
1E
22
42
44
44
4D
32
00
00
00
ENDCHAR
STARTCHAR C0065
ENCODING -1 101
SWIDTH 429 0
DWIDTH 6 0
BBX 6 14 0 -4
BITMAP
00
00
00
00
18
24
44
48
70
44
38
00
00
00
ENDCHAR
STARTCHAR C0066
ENCODING -1 102
SWIDTH 500 0
DWIDTH 7 0
BBX 8 14 0 -4
BITMAP
00
03
05
08
3E
08
08
08
10
10
10
20
A0
C0
ENDCHAR
STARTCHAR C0067
ENCODING -1 103
SWIDTH 571 0
DWIDTH 8 0
BBX 8 14 0 -4
BITMAP
00
00
00
00
0D
12
22
22
1C
20
5C
42
42
3C
ENDCHAR
STARTCHAR C0068
ENCODING -1 104
SWIDTH 571 0
DWIDTH 8 0
BBX 8 14 0 -4
BITMAP
00
30
10
10
2C
32
22
42
44
45
46
00
00
00
ENDCHAR
STARTCHAR C0069
ENCODING -1 105
SWIDTH 429 0
DWIDTH 6 0
BBX 6 14 0 -4
BITMAP
00
04
04
00
18
08
10
10
20
24
18
00
00
00
ENDCHAR
STARTCHAR C006A
ENCODING -1 106
SWIDTH 429 0
DWIDTH 6 0
BBX 6 14 0 -4
BITMAP
00
04
04
00
18
08
08
10
10
10
20
20
A0
C0
ENDCHAR
STARTCHAR C006B
ENCODING -1 107
SWIDTH 571 0
DWIDTH 8 0
BBX 8 14 0 -4
BITMAP
00
18
08
08
13
14
18
28
24
25
72
00
00
00
ENDCHAR
STARTCHAR C006C
ENCODING -1 108
SWIDTH 357 0
DWIDTH 5 0
BBX 5 14 0 -4
BITMAP
00
18
08
08
10
10
10
20
20
28
30
00
00
00
ENDCHAR
STARTCHAR C006D
ENCODING -1 109
SWIDTH 857 0
DWIDTH 12 0
BBX 12 14 0 -4
BITMAP
0000
0000
0000
0000
6CC0
3320
2220
2220
4440
4450
4460
0000
0000
0000
ENDCHAR
STARTCHAR C006E
ENCODING -1 110
SWIDTH 571 0
DWIDTH 8 0
BBX 8 14 0 -4
BITMAP
00
00
00
00
6C
32
22
22
44
45
46
00
00
00
ENDCHAR
STARTCHAR C006F
ENCODING -1 111
SWIDTH 500 0
DWIDTH 7 0
BBX 7 14 0 -4
BITMAP
00
00
00
00
1C
22
42
42
42
44
38
00
00
00
ENDCHAR
STARTCHAR C0070
ENCODING -1 112
SWIDTH 500 0
DWIDTH 7 0
BBX 7 14 0 -4
BITMAP
00
00
00
00
3C
12
12
22
22
24
38
40
40
E0
ENDCHAR
STARTCHAR C0071
ENCODING -1 113
SWIDTH 571 0
DWIDTH 8 0
BBX 8 14 0 -4
BITMAP
00
00
00
00
0F
12
22
42
44
44
34
08
08
1C
ENDCHAR
STARTCHAR C0072
ENCODING -1 114
SWIDTH 429 0
DWIDTH 6 0
BBX 6 14 0 -4
BITMAP
00
00
00
00
3C
14
10
10
20
20
20
00
00
00
ENDCHAR
STARTCHAR C0073
ENCODING -1 115
SWIDTH 429 0
DWIDTH 6 0
BBX 6 14 0 -4
BITMAP
00
00
00
00
1C
24
20
10
08
48
70
00
00
00
ENDCHAR
STARTCHAR C0074
ENCODING -1 116
SWIDTH 429 0
DWIDTH 6 0
BBX 6 14 0 -4
BITMAP
00
00
08
08
3C
10
10
10
20
28
30
00
00
00
ENDCHAR
STARTCHAR C0075
ENCODING -1 117
SWIDTH 643 0
DWIDTH 9 0
BBX 9 14 0 -4
BITMAP
0000
0000
0000
0000
3100
5100
1100
2200
2200
2680
1B00
0000
0000
0000
ENDCHAR
STARTCHAR C0076
ENCODING -1 118
SWIDTH 500 0
DWIDTH 7 0
BBX 7 14 0 -4
BITMAP
00
00
00
00
66
22
22
24
14
18
10
00
00
00
ENDCHAR
STARTCHAR C0077
ENCODING -1 119
SWIDTH 786 0
DWIDTH 11 0
BBX 11 14 0 -4
BITMAP
0000
0000
0000
0000
6260
2220
2620
2A40
2940
3180
2100
0000
0000
0000
ENDCHAR
STARTCHAR C0078
ENCODING -1 120
SWIDTH 643 0
DWIDTH 9 0
BBX 9 14 0 -4
BITMAP
0000
0000
0000
0000
1980
2A80
0A00
0400
0C00
5500
6600
0000
0000
0000
ENDCHAR
STARTCHAR C0079
ENCODING -1 121
SWIDTH 571 0
DWIDTH 8 0
BBX 8 14 0 -4
BITMAP
00
00
00
00
63
21
12
12
14
08
08
10
50
60
ENDCHAR
STARTCHAR C007A
ENCODING -1 122
SWIDTH 429 0
DWIDTH 6 0
BBX 6 14 0 -4
BITMAP
00
00
00
00
3C
44
08
10
20
44
78
00
00
00
ENDCHAR
STARTCHAR C007B
ENCODING -1 123
SWIDTH 786 0
DWIDTH 11 0
BBX 11 14 0 -4
BITMAP
00E0
0100
0100
0200
0200
0C00
3000
0800
0800
0800
0800
1000
1000
0E00
ENDCHAR
STARTCHAR C007C
ENCODING -1 124
SWIDTH 429 0
DWIDTH 6 0
BBX 6 14 0 -4
BITMAP
00
04
04
04
08
08
08
10
10
10
20
20
20
00
ENDCHAR
STARTCHAR C007D
ENCODING -1 125
SWIDTH 714 0
DWIDTH 10 0
BBX 11 14 0 -4
BITMAP
0380
0040
0040
0080
0080
0080
0060
0180
0200
0200
0200
0400
0400
3800
ENDCHAR
STARTCHAR C007E
ENCODING -1 126
SWIDTH 786 0
DWIDTH 11 0
BBX 11 14 0 -4
BITMAP
0000
0000
0000
0000
0C20
1240
2180
0000
0000
0000
0000
0000
0000
0000
ENDCHAR
STARTCHAR C007F
ENCODING -1 127
SWIDTH 0 0
DWIDTH 0 0
BBX 0 14 0 -4
BITMAP
00
00
00
00
00
00
00
00
00
00
00
00
00
00
ENDCHAR
ENDFONT
